<?xml version="1.0" encoding="UTF-8"?>
<svg width="449px" height="403px" viewBox="0 0 449 403" version="1.1" xmlns="http://www.w3.org/2000/svg" xmlns:xlink="http://www.w3.org/1999/xlink">
    <!-- Generator: Sketch 51.3 (57544) - http://www.bohemiancoding.com/sketch -->
    <title>dots-left</title>
    <desc>Created with Sketch.</desc>
    <defs></defs>
    <g id="Page-1" stroke="none" stroke-width="1" fill="none" fill-rule="evenodd" opacity="0.711">
        <g id="dots-left" transform="translate(1.000000, 1.000000)" stroke="#D3E4F4" stroke-width="1.5">
            <path d="M306,204 C306,201.8 307.8,200 310,200 C312.2,200 314,201.8 314,204 C314,206.2 312.2,208 310,208 C307.8,208 306,206.2 306,204 Z M362,141 C362,138.8 363.8,137 366,137 C368.2,137 370,138.8 370,141 C370,143.2 368.2,145 366,145 C363.8,145 362,143.2 362,141 Z M326,168 C328.2,168 330,169.8 330,172 C330,174.2 328.2,176 326,176 C323.8,176 322,174.2 322,172 C322,169.8 323.8,168 326,168 Z M435,154 C437.2,154 439,155.8 439,158 C439,160.2 437.2,162 435,162 C432.8,162 431,160.2 431,158 C431,155.8 432.8,154 435,154 Z M397,204 C399.2,204 401,205.8 401,208 C401,210.2 399.2,212 397,212 C394.8,212 393,210.2 393,208 C393,205.8 394.8,204 397,204 Z M342,293 C344.2,293 346,294.8 346,297 C346,299.2 344.2,301 342,301 C339.8,301 338,299.2 338,297 C338,294.8 339.8,293 342,293 Z M207,172 C207,169.8 208.8,168 211,168 C213.2,168 215,169.8 215,172 C215,174.2 213.2,176 211,176 C208.8,176 207,174.2 207,172 Z M251,212 C251,209.8 252.8,208 255,208 C257.2,208 259,209.8 259,212 C259,214.2 257.2,216 255,216 C252.8,216 251,214.2 251,212 Z M74,150 C74,147.8 75.8,146 78,146 C80.2,146 82,147.8 82,150 C82,152.2 80.2,154 78,154 C75.8,154 74,152.2 74,150 Z M314,345 C314,342.8 315.8,341 318,341 C320.2,341 322,342.8 322,345 C322,347.2 320.2,349 318,349 C315.8,349 314,347.2 314,345 Z M407,293 C407,290.8 408.8,289 411,289 C413.2,289 415,290.8 415,293 C415,295.2 413.2,297 411,297 C408.8,297 407,295.2 407,293 Z M386,349 C386,346.8 387.8,345 390,345 C392.2,345 394,346.8 394,349 C394,351.2 392.2,353 390,353 C387.8,353 386,351.2 386,349 Z M382,257 C382,254.8 383.8,253 386,253 C388.2,253 390,254.8 390,257 C390,259.2 388.2,261 386,261 C383.8,261 382,259.2 382,257 Z M338,249 C338,246.8 339.8,245 342,245 C344.2,245 346,246.8 346,249 C346,251.2 344.2,253 342,253 C339.8,253 338,251.2 338,249 Z M128,239 C128,236.8 129.8,235 132,235 C134.2,235 136,236.8 136,239 C136,241.2 134.2,243 132,243 C129.8,243 128,241.2 128,239 Z M439,235 C439,232.8 440.8,231 443,231 C445.2,231 447,232.8 447,235 C447,237.2 445.2,239 443,239 C440.8,239 439,237.2 439,235 Z M215,337 C215,334.8 216.8,333 219,333 C221.2,333 223,334.8 223,337 C223,339.2 221.2,341 219,341 C216.8,341 215,339.2 215,337 Z M168,289 C168,286.8 169.8,285 172,285 C174.2,285 176,286.8 176,289 C176,291.2 174.2,293 172,293 C169.8,293 168,291.2 168,289 Z M261,133 C261,130.8 262.8,129 265,129 C267.2,129 269,130.8 269,133 C269,135.2 267.2,137 265,137 C262.8,137 261,135.2 261,133 Z M378,172 C378,169.8 379.8,168 382,168 C384.2,168 386,169.8 386,172 C386,174.2 384.2,176 382,176 C379.8,176 378,174.2 378,172 Z M439,93 C439,90.8 440.8,89 443,89 C445.2,89 447,90.8 447,93 C447,95.2 445.2,97 443,97 C440.8,97 439,95.2 439,93 Z M255,397 C255,394.8 256.8,393 259,393 C261.2,393 263,394.8 263,397 C263,399.2 261.2,401 259,401 C256.8,401 255,399.2 255,397 Z M176.5,220 C176.5,217.8 178.3,216 180.5,216 C182.7,216 184.5,217.8 184.5,220 C184.5,222.2 182.7,224 180.5,224 C178.3,224 176.5,222.2 176.5,220 Z M128,58 C128,55.8 129.8,54 132,54 C134.2,54 136,55.8 136,58 C136,60.2 134.2,62 132,62 C129.8,62 128,60.2 128,58 Z M322,115 C322,117.2 320.2,119 318,119 C315.8,119 314,117.2 314,115 C314,112.8 315.8,111 318,111 C320.2,111 322,112.8 322,115 Z M298,55 C298,52.8 299.8,51 302,51 C304.2,51 306,52.8 306,55 C306,57.2 304.2,59 302,59 C299.8,59 298,57.2 298,55 Z M401,107 C401,104.8 402.8,103 405,103 C407.2,103 409,104.8 409,107 C409,109.2 407.2,111 405,111 C402.8,111 401,109.2 401,107 Z M128,180 C128,177.8 129.8,176 132,176 C134.2,176 136,177.8 136,180 C136,182.2 134.2,184 132,184 C129.8,184 128,182.2 128,180 Z M261,249 C261,246.8 262.8,245 265,245 C267.2,245 269,246.8 269,249 C269,251.2 267.2,253 265,253 C262.8,253 261,251.2 261,249 Z M269,293 C269,290.8 270.8,289 273,289 C275.2,289 277,290.8 277,293 C277,295.2 275.2,297 273,297 C270.8,297 269,295.2 269,293 Z M0,168 C0,165.8 1.8,164 4,164 C6.2,164 8,165.8 8,168 C8,170.2 6.2,172 4,172 C1.8,172 0,170.2 0,168 Z M370,4 C370,1.8 371.8,0 374,0 C376.2,0 378,1.8 378,4 C378,6.2 376.2,8 374,8 C371.8,8 370,6.2 370,4 Z M411,59 C411,56.8 412.8,55 415,55 C417.2,55 419,56.8 419,59 C419,61.2 417.2,63 415,63 C412.8,63 411,61.2 411,59 Z M174,103 C174,100.8 175.8,99 178,99 C180.2,99 182,100.8 182,103 C182,105.2 180.2,107 178,107 C175.8,107 174,105.2 174,103 Z" id="Shape"></path>
        </g>
    </g>
</svg>