<?xml version="1.0" encoding="UTF-8"?>
<svg width="705px" height="168px" viewBox="0 0 705 168" version="1.1" xmlns="http://www.w3.org/2000/svg" xmlns:xlink="http://www.w3.org/1999/xlink">
    <!-- Generator: Sketch 51.3 (57544) - http://www.bohemiancoding.com/sketch -->
    <title>Group 5</title>
    <desc>Created with Sketch.</desc>
    <defs></defs>
    <g id="Page-1" stroke="none" stroke-width="1" fill="none" fill-rule="evenodd">
        <g id="Group-5" transform="translate(0.000000, -5.000000)">
            <path d="M0,63.4128 L6.912,63.4128 L6.912,116.6352 L0,116.6352 L0,63.4128 Z M29.3760001,78.3888 C29.3760001,77.390395 29.3376005,76.1808071 29.2608001,74.76 C29.1839997,73.3391929 29.1264003,71.8992073 29.0880001,70.44 C29.0495999,68.9807927 28.9920005,67.6176063 28.9152001,66.3504 C28.8383997,65.0831937 28.8000001,64.1040035 28.8000001,63.4128 L35.7120001,63.4128 C35.7888005,65.40961 35.8463999,67.3295908 35.8848001,69.1728 C35.9232003,71.0160092 36.0191993,72.2063973 36.1728001,72.744 L36.5184001,72.744 C37.900807,69.8255854 40.204784,67.3104106 43.4304001,65.1984 C46.6560162,63.0863894 50.4191786,62.0304 54.7200001,62.0304 C58.8672209,62.0304 62.2463871,62.6831935 64.8576001,63.9888 C67.4688132,65.2944065 69.5231926,67.0031894 71.0208001,69.1152 C72.5184076,71.2272106 73.5551972,73.6655862 74.1312001,76.4304 C74.707203,79.1952138 74.9952001,82.0367854 74.9952001,84.9552 L74.9952001,116.6352 L68.0832001,116.6352 L68.0832001,85.3008 C68.0832001,83.1503892 67.891202,81.0576102 67.5072001,79.0224 C67.1231982,76.9871898 66.4512049,75.1632081 65.4912001,73.5504 C64.5311953,71.9375919 63.1872088,70.6512048 61.4592001,69.6912 C59.7311915,68.7311952 57.4848139,68.2512 54.7200001,68.2512 C52.1855874,68.2512 49.7856114,68.6927956 47.5200001,69.576 C45.2543888,70.4592044 43.2960084,71.803191 41.6448001,73.608 C39.9935919,75.412809 38.6880049,77.6783864 37.7280001,80.4048 C36.7679953,83.1312136 36.2880001,86.3375816 36.2880001,90.024 L36.2880001,116.6352 L29.3760001,116.6352 L29.3760001,78.3888 Z M96.4224002,103.0416 C97.8816075,105.883214 100.031986,108.052793 102.8736,109.5504 C105.715214,111.048007 108.710384,111.7968 111.8592,111.7968 C113.318408,111.7968 114.777593,111.566402 116.2368,111.1056 C117.696008,110.644798 119.001594,109.992004 120.1536,109.1472 C121.305606,108.302396 122.246397,107.284806 122.976,106.0944 C123.705604,104.903994 124.0704,103.540808 124.0704,102.0048 C124.0704,99.5471877 123.283208,97.7040061 121.7088,96.4752 C120.134392,95.2463939 118.195212,94.2864035 115.8912,93.5952 C113.587189,92.9039965 111.052814,92.3088025 108.288,91.8096 C105.523186,91.3103975 102.988812,90.5424052 100.6848,89.5056 C98.3807887,88.4687948 96.4416081,87.0288092 94.8672002,85.1856 C93.2927924,83.3423908 92.5056002,80.7312169 92.5056002,77.352 C92.5056002,74.7407869 93.0431949,72.4752096 94.1184002,70.5552 C95.1936056,68.6351904 96.5951916,67.0416063 98.3232002,65.7744 C100.051209,64.5071937 101.990389,63.5664031 104.1408,62.952 C106.291211,62.3375969 108.479989,62.0304 110.7072,62.0304 C115.084822,62.0304 118.867184,62.8367919 122.0544,64.4496 C125.241616,66.0624081 127.718391,68.5967827 129.4848,72.0528 L123.264,75.7392 C121.958394,73.2815877 120.32641,71.4192063 118.368,70.152 C116.40959,68.8847937 113.856016,68.2512 110.7072,68.2512 C109.478394,68.2512 108.192007,68.4431981 106.848,68.8272 C105.503994,69.2112019 104.294406,69.7487965 103.2192,70.44 C102.143995,71.1312035 101.241604,72.0143946 100.512,73.0896 C99.7823966,74.1648054 99.4176002,75.3935931 99.4176002,76.776 C99.4176002,79.1568119 100.204792,80.9231942 101.7792,82.0752 C103.353608,83.2272058 105.292789,84.1295967 107.5968,84.7824 C109.900812,85.4352033 112.435186,85.9919977 115.2,86.4528 C117.964814,86.9136023 120.499189,87.6623948 122.8032,88.6992 C125.107212,89.7360052 127.046392,91.2335902 128.6208,93.192 C130.195208,95.1504098 130.9824,97.934382 130.9824,101.544 C130.9824,104.308814 130.464005,106.70879 129.4272,108.744 C128.390395,110.77921 126.969609,112.487993 125.1648,113.8704 C123.359991,115.252807 121.305612,116.289597 119.0016,116.9808 C116.697589,117.672003 114.278413,118.0176 111.744,118.0176 C107.135977,118.0176 102.931219,117.134409 99.1296002,115.368 C95.3279812,113.601591 92.3904106,110.875218 90.3168002,107.1888 L96.4224002,103.0416 Z M146.7648,63.4128 L153.6768,63.4128 L153.6768,72.744 L153.9072,72.744 C154.982406,70.9007908 156.326392,69.3072067 157.9392,67.9632 C159.552008,66.6191933 161.299191,65.5056044 163.1808,64.6224 C165.06241,63.7391956 167.03999,63.0864021 169.1136,62.664 C171.187211,62.2415979 173.22239,62.0304 175.2192,62.0304 C179.289621,62.0304 183.033583,62.7215931 186.4512,64.104 C189.868817,65.4864069 192.825588,67.4255875 195.3216,69.9216 C197.817613,72.4176125 199.756793,75.3743829 201.1392,78.792 C202.521607,82.2096171 203.2128,85.9535796 203.2128,90.024 C203.2128,94.0944204 202.521607,97.8383829 201.1392,101.256 C199.756793,104.673617 197.817613,107.630388 195.3216,110.1264 C192.825588,112.622412 189.868817,114.561593 186.4512,115.944 C183.033583,117.326407 179.289621,118.0176 175.2192,118.0176 C173.22239,118.0176 171.187211,117.806402 169.1136,117.384 C167.03999,116.961598 165.06241,116.308804 163.1808,115.4256 C161.299191,114.542396 159.552008,113.428807 157.9392,112.0848 C156.326392,110.740793 154.982406,109.147209 153.9072,107.304 L153.6768,107.304 L153.6768,142.9008 L146.7648,142.9008 L146.7648,63.4128 Z M152.9856,90.024 C152.9856,93.019215 153.561595,95.8415868 154.7136,98.4912 C155.865606,101.140813 157.43999,103.44479 159.4368,105.4032 C161.43361,107.36161 163.775987,108.916794 166.464,110.0688 C169.152014,111.220806 172.070385,111.7968 175.2192,111.7968 C178.444816,111.7968 181.363187,111.220806 183.9744,110.0688 C186.585613,108.916794 188.812791,107.36161 190.656,105.4032 C192.49921,103.44479 193.900796,101.140813 194.8608,98.4912 C195.820805,95.8415868 196.3008,93.019215 196.3008,90.024 C196.3008,87.028785 195.820805,84.2064132 194.8608,81.5568 C193.900796,78.9071868 192.49921,76.6032098 190.656,74.6448 C188.812791,72.6863902 186.585613,71.1312058 183.9744,69.9792 C181.363187,68.8271942 178.444816,68.2512 175.2192,68.2512 C172.070385,68.2512 169.152014,68.8271942 166.464,69.9792 C163.775987,71.1312058 161.43361,72.6863902 159.4368,74.6448 C157.43999,76.6032098 155.865606,78.9071868 154.7136,81.5568 C153.561595,84.2064132 152.9856,87.028785 152.9856,90.024 Z M268.5312,106.6128 C265.843187,110.68322 262.52162,113.601591 258.5664,115.368 C254.611181,117.134409 250.252824,118.0176 245.4912,118.0176 C241.42078,118.0176 237.734417,117.326407 234.432,115.944 C231.129584,114.561593 228.288012,112.622412 225.9072,110.1264 C223.526389,107.630388 221.702407,104.673617 220.4352,101.256 C219.167994,97.8383829 218.5344,94.0560207 218.5344,89.9088 C218.5344,85.91518 219.187194,82.2288169 220.4928,78.8496 C221.798407,75.4703831 223.641589,72.5328125 226.0224,70.0368 C228.403212,67.5407875 231.206384,65.5824071 234.432,64.1616 C237.657617,62.7407929 241.228781,62.0304 245.1456,62.0304 C249.216021,62.0304 252.806385,62.7407929 255.9168,64.1616 C259.027216,65.5824071 261.63839,67.4639883 263.7504,69.8064 C265.862411,72.1488117 267.455995,74.817585 268.5312,77.8128 C269.606406,80.808015 270.144,83.8415846 270.144,86.9136 L270.144,91.752 L225.4464,91.752 C225.4464,93.2112073 225.734398,95.0735887 226.3104,97.3392 C226.886403,99.6048113 227.942393,101.812789 229.4784,103.9632 C231.014408,106.113611 233.068788,107.956792 235.6416,109.4928 C238.214413,111.028808 241.53598,111.7968 245.6064,111.7968 C249.139218,111.7968 252.556784,110.952008 255.8592,109.2624 C259.161617,107.572792 261.695992,105.268815 263.4624,102.3504 L268.5312,106.6128 Z M263.232,85.5312 C263.232,83.1503881 262.752005,80.9232104 261.792,78.8496 C260.831996,76.7759896 259.526409,74.9520079 257.8752,73.3776 C256.223992,71.8031921 254.265612,70.5552046 252,69.6336 C249.734389,68.7119954 247.334413,68.2512 244.8,68.2512 C241.036782,68.2512 237.907213,69.0191923 235.4112,70.5552 C232.915188,72.0912077 230.937608,73.85759 229.4784,75.8544 C228.019193,77.85121 226.982404,79.7903906 226.368,81.672 C225.753597,83.5536094 225.4464,84.8399965 225.4464,85.5312 L263.232,85.5312 Z M333.043201,108.8016 C330.431988,111.950416 327.475217,114.273593 324.172801,115.7712 C320.870384,117.268807 317.29922,118.0176 313.459201,118.0176 C309.38878,118.0176 305.625618,117.326407 302.169601,115.944 C298.713583,114.561593 295.756813,112.622412 293.299201,110.1264 C290.841588,107.630388 288.921607,104.673617 287.539201,101.256 C286.156794,97.8383829 285.465601,94.0944204 285.465601,90.024 C285.465601,85.9535796 286.156794,82.2096171 287.539201,78.792 C288.921607,75.3743829 290.841588,72.4176125 293.299201,69.9216 C295.756813,67.4255875 298.713583,65.4864069 302.169601,64.104 C305.625618,62.7215931 309.38878,62.0304 313.459201,62.0304 C317.37602,62.0304 321.004784,62.8367919 324.345601,64.4496 C327.686417,66.0624081 330.662388,68.3279854 333.273601,71.2464 L327.744001,75.3936 C325.747191,73.1663889 323.558412,71.4192063 321.177601,70.152 C318.796789,68.8847937 316.224014,68.2512 313.459201,68.2512 C310.233584,68.2512 307.315214,68.8271942 304.704001,69.9792 C302.092788,71.1312058 299.86561,72.6863902 298.022401,74.6448 C296.179191,76.6032098 294.777605,78.9071868 293.817601,81.5568 C292.857596,84.2064132 292.377601,87.028785 292.377601,90.024 C292.377601,93.019215 292.857596,95.8415868 293.817601,98.4912 C294.777605,101.140813 296.179191,103.44479 298.022401,105.4032 C299.86561,107.36161 302.092788,108.916794 304.704001,110.0688 C307.315214,111.220806 310.233584,111.7968 313.459201,111.7968 C316.377615,111.7968 319.046388,111.124807 321.465601,109.7808 C323.884813,108.436793 325.977592,106.651211 327.744001,104.424 L333.043201,108.8016 Z M372.787201,69.6336 L357.580801,69.6336 L357.580801,104.3088 C357.580801,106.689612 358.233594,108.532793 359.539201,109.8384 C360.844807,111.144007 362.649589,111.7968 364.953601,111.7968 C366.259207,111.7968 367.583994,111.624002 368.928001,111.2784 C370.272007,110.932798 371.558395,110.491203 372.787201,109.9536 L373.363201,116.1744 C372.057594,116.635202 370.560009,117.057598 368.870401,117.4416 C367.180792,117.825602 365.683207,118.0176 364.377601,118.0176 C361.919988,118.0176 359.80801,117.652804 358.041601,116.9232 C356.275192,116.193596 354.854406,115.214406 353.779201,113.9856 C352.703995,112.756794 351.916803,111.316808 351.417601,109.6656 C350.918398,108.014392 350.668801,106.22881 350.668801,104.3088 L350.668801,69.6336 L339.148801,69.6336 L339.148801,63.4128 L350.668801,63.4128 L350.668801,48.0912 L357.580801,48.0912 L357.580801,63.4128 L372.787201,63.4128 L372.787201,69.6336 Z M389.260801,63.4128 L396.172801,63.4128 L396.172801,116.6352 L389.260801,116.6352 L389.260801,63.4128 Z M415.641601,90.024 C415.641601,85.9535796 416.332794,82.2096171 417.715201,78.792 C419.097608,75.3743829 421.017589,72.4176125 423.475201,69.9216 C425.932813,67.4255875 428.889584,65.4864069 432.345601,64.104 C435.801618,62.7215931 439.564781,62.0304 443.635201,62.0304 C447.705621,62.0304 451.449584,62.7215931 454.867201,64.104 C458.284818,65.4864069 461.241588,67.4255875 463.737601,69.9216 C466.233613,72.4176125 468.172794,75.3743829 469.555201,78.792 C470.937608,82.2096171 471.628801,85.9535796 471.628801,90.024 C471.628801,94.0944204 470.937608,97.8383829 469.555201,101.256 C468.172794,104.673617 466.233613,107.630388 463.737601,110.1264 C461.241588,112.622412 458.284818,114.561593 454.867201,115.944 C451.449584,117.326407 447.705621,118.0176 443.635201,118.0176 C439.564781,118.0176 435.801618,117.326407 432.345601,115.944 C428.889584,114.561593 425.932813,112.622412 423.475201,110.1264 C421.017589,107.630388 419.097608,104.673617 417.715201,101.256 C416.332794,97.8383829 415.641601,94.0944204 415.641601,90.024 Z M422.553601,90.024 C422.553601,93.019215 423.033596,95.8415868 423.993601,98.4912 C424.953606,101.140813 426.355192,103.44479 428.198401,105.4032 C430.04161,107.36161 432.268788,108.916794 434.880001,110.0688 C437.491214,111.220806 440.409585,111.7968 443.635201,111.7968 C446.860817,111.7968 449.779188,111.220806 452.390401,110.0688 C455.001614,108.916794 457.228792,107.36161 459.072001,105.4032 C460.91521,103.44479 462.316796,101.140813 463.276801,98.4912 C464.236806,95.8415868 464.716801,93.019215 464.716801,90.024 C464.716801,87.028785 464.236806,84.2064132 463.276801,81.5568 C462.316796,78.9071868 460.91521,76.6032098 459.072001,74.6448 C457.228792,72.6863902 455.001614,71.1312058 452.390401,69.9792 C449.779188,68.8271942 446.860817,68.2512 443.635201,68.2512 C440.409585,68.2512 437.491214,68.8271942 434.880001,69.9792 C432.268788,71.1312058 430.04161,72.6863902 428.198401,74.6448 C426.355192,76.6032098 424.953606,78.9071868 423.993601,81.5568 C423.033596,84.2064132 422.553601,87.028785 422.553601,90.024 Z M489.945601,78.3888 C489.945601,77.390395 489.907201,76.1808071 489.830401,74.76 C489.753601,73.3391929 489.696001,71.8992073 489.657601,70.44 C489.619201,68.9807927 489.561601,67.6176063 489.484801,66.3504 C489.408001,65.0831937 489.369601,64.1040035 489.369601,63.4128 L496.281601,63.4128 C496.358401,65.40961 496.416001,67.3295908 496.454401,69.1728 C496.492801,71.0160092 496.5888,72.2063973 496.742401,72.744 L497.088001,72.744 C498.470408,69.8255854 500.774385,67.3104106 504.000001,65.1984 C507.225617,63.0863894 510.98878,62.0304 515.289601,62.0304 C519.436822,62.0304 522.815988,62.6831935 525.427201,63.9888 C528.038414,65.2944065 530.092794,67.0031894 531.590401,69.1152 C533.088009,71.2272106 534.124798,73.6655862 534.700801,76.4304 C535.276804,79.1952138 535.564801,82.0367854 535.564801,84.9552 L535.564801,116.6352 L528.652801,116.6352 L528.652801,85.3008 C528.652801,83.1503892 528.460803,81.0576102 528.076801,79.0224 C527.692799,76.9871898 527.020806,75.1632081 526.060801,73.5504 C525.100796,71.9375919 523.75681,70.6512048 522.028801,69.6912 C520.300792,68.7311952 518.054415,68.2512 515.289601,68.2512 C512.755188,68.2512 510.355212,68.6927956 508.089601,69.576 C505.82399,70.4592044 503.865609,71.803191 502.214401,73.608 C500.563193,75.412809 499.257606,77.6783864 498.297601,80.4048 C497.337596,83.1312136 496.857601,86.3375816 496.857601,90.024 L496.857601,116.6352 L489.945601,116.6352 L489.945601,78.3888 Z M553.536001,75.8544 C553.536001,69.6335689 554.572791,63.9120261 556.646401,58.6896 C558.720012,53.4671739 561.599983,48.955219 565.286401,45.1536 C568.97282,41.351981 573.407975,38.3760108 578.592001,36.2256 C583.776027,34.0751892 589.47837,33 595.699201,33 C601.920032,33 607.622375,34.0751892 612.806401,36.2256 C617.990427,38.3760108 622.425583,41.351981 626.112001,45.1536 C629.79842,48.955219 632.678391,53.4671739 634.752001,58.6896 C636.825612,63.9120261 637.862401,69.6335689 637.862401,75.8544 C637.862401,82.0752311 636.825612,87.8159737 634.752001,93.0768 C632.678391,98.3376263 629.79842,102.868781 626.112001,106.6704 C622.425583,110.472019 617.990427,113.428789 612.806401,115.5408 C607.622375,117.652811 601.920032,118.7088 595.699201,118.7088 C589.47837,118.7088 583.776027,117.652811 578.592001,115.5408 C573.407975,113.428789 568.97282,110.472019 565.286401,106.6704 C561.599983,102.868781 558.720012,98.3376263 556.646401,93.0768 C554.572791,87.8159737 553.536001,82.0752311 553.536001,75.8544 Z M561.139201,75.8544 C561.139201,80.9232253 561.945593,85.6463781 563.558401,90.024 C565.171209,94.4016219 567.475186,98.2031839 570.470401,101.4288 C573.465616,104.654416 577.09438,107.188791 581.356801,109.032 C585.619222,110.875209 590.399975,111.7968 595.699201,111.7968 C600.998428,111.7968 605.77918,110.875209 610.041601,109.032 C614.304022,107.188791 617.932786,104.654416 620.928001,101.4288 C623.923216,98.2031839 626.227193,94.4016219 627.840001,90.024 C629.452809,85.6463781 630.259201,80.9232253 630.259201,75.8544 C630.259201,70.7855747 629.452809,66.0624219 627.840001,61.6848 C626.227193,57.3071781 623.923216,53.5056161 620.928001,50.28 C617.932786,47.0543839 614.304022,44.5200092 610.041601,42.6768 C605.77918,40.8335908 600.998428,39.912 595.699201,39.912 C590.399975,39.912 585.619222,40.8335908 581.356801,42.6768 C577.09438,44.5200092 573.465616,47.0543839 570.470401,50.28 C567.475186,53.5056161 565.171209,57.3071781 563.558401,61.6848 C561.945593,66.0624219 561.139201,70.7855747 561.139201,75.8544 Z M659.980801,101.544 C661.977611,105.000017 664.569585,107.572792 667.756801,109.2624 C670.944017,110.952008 674.572781,111.7968 678.643201,111.7968 C681.177614,111.7968 683.55839,111.412804 685.785601,110.6448 C688.012812,109.876796 689.951993,108.801607 691.603201,107.4192 C693.25441,106.036793 694.559996,104.36641 695.520001,102.408 C696.480006,100.44959 696.960001,98.2416123 696.960001,95.784 C696.960001,92.9423858 696.364807,90.6000092 695.174401,88.7568 C693.983995,86.9135908 692.390411,85.396806 690.393601,84.2064 C688.396791,83.015994 686.150414,81.9984042 683.654401,81.1536 C681.158389,80.3087958 678.585615,79.4640042 675.936001,78.6192 C673.286388,77.7743958 670.713614,76.8144054 668.217601,75.7392 C665.721589,74.6639946 663.475211,73.2624086 661.478401,71.5344 C659.481591,69.8063914 657.888007,67.6368131 656.697601,65.0256 C655.507195,62.4143869 654.912001,59.1888192 654.912001,55.3488 C654.912001,51.739182 655.622394,48.532814 657.043201,45.7296 C658.464008,42.926386 660.383989,40.5840094 662.803201,38.7024 C665.222413,36.8207906 668.006386,35.4000048 671.155201,34.44 C674.304017,33.4799952 677.606384,33 681.062401,33 C685.516824,33 689.644782,33.7871921 693.446401,35.3616 C697.24802,36.9360079 700.531187,39.5663816 703.296001,43.2528 L696.729601,47.976 C694.809592,45.2879866 692.563214,43.2720067 689.990401,41.928 C687.417588,40.5839933 684.364819,39.912 680.832001,39.912 C678.374389,39.912 676.032012,40.2383967 673.804801,40.8912 C671.57759,41.5440033 669.63841,42.5039937 667.987201,43.7712 C666.335993,45.0384063 665.011206,46.6319904 664.012801,48.552 C663.014396,50.4720096 662.515201,52.7375869 662.515201,55.3488 C662.515201,59.4192204 663.551991,62.5487891 665.625601,64.7376 C667.699212,66.9264109 670.291186,68.6543937 673.401601,69.9216 C676.512017,71.1888063 679.891183,72.3023952 683.539201,73.2624 C687.187219,74.2224048 690.566386,75.5087919 693.676801,77.1216 C696.787217,78.7344081 699.379191,80.9807856 701.452801,83.8608 C703.526412,86.7408144 704.563201,90.7151747 704.563201,95.784 C704.563201,99.4704184 703.872008,102.734386 702.489601,105.576 C701.107194,108.417614 699.244813,110.81759 696.902401,112.776 C694.55999,114.73441 691.852817,116.212795 688.780801,117.2112 C685.708786,118.209605 682.521618,118.7088 679.219201,118.7088 C673.843174,118.7088 668.889624,117.768009 664.358401,115.8864 C659.827179,114.004791 655.948817,110.836822 652.723201,106.3824 L659.980801,101.544 Z" id="inspectionOS-Copy" fill="#486BFF"></path>
            <text id="An-Inspection-Platfo" font-family="Avenir-Light, Avenir" font-size="24" font-weight="300" letter-spacing="0.6666667" fill="#222831">
                <tspan x="352" y="167">An Inspection Platform</tspan>
            </text>
            <text id="Welcome-to" font-family="Avenir-Light, Avenir" font-size="24" font-weight="300" letter-spacing="0.6666667" fill="#222831">
                <tspan x="29" y="24">Welcome to</tspan>
            </text>
        </g>
    </g>
</svg>